<?xml version="1.0" standalone="no"?>
<!DOCTYPE svg PUBLIC "-//W3C//DTD SVG 20010904//EN"
 "http://www.w3.org/TR/2001/REC-SVG-20010904/DTD/svg10.dtd">
<svg version="1.0" xmlns="http://www.w3.org/2000/svg"
 width="203.000000pt" height="203.000000pt" viewBox="0 0 203.000000 203.000000"
 preserveAspectRatio="xMidYMid meet">
<metadata>
Created by potrace 1.11, written by Peter Selinger 2001-2013
</metadata>
<g transform="translate(0.000000,203.000000) scale(0.100000,-0.100000)"
fill="#000000" stroke="none">
<path d="M990 1640 c-11 -11 -34 -49 -51 -85 -29 -59 -114 -156 -136 -155 -4
1 -17 15 -28 32 -73 114 -222 132 -270 32 -52 -109 52 -231 205 -242 97 -7
173 29 267 125 l41 43 60 -59 c84 -82 157 -116 249 -116 57 0 77 4 99 21 48
36 69 72 69 121 0 60 -38 93 -105 93 -47 0 -73 -13 -123 -59 l-28 -26 -42 23
c-57 30 -129 101 -122 119 39 102 -22 196 -85 133z"/>
<path d="M298 1247 c-129 -37 -212 -171 -179 -290 29 -103 134 -177 251 -177
140 0 227 64 251 182 36 180 -141 335 -323 285z m179 -132 c57 -38 65 -127 17
-185 -38 -44 -92 -57 -149 -36 -90 35 -118 132 -54 195 51 51 130 62 186 26z"/>
<path d="M866 1239 c-21 -16 -26 -29 -26 -63 0 -63 46 -119 130 -159 63 -29
169 -29 226 1 87 45 121 124 69 158 -25 16 -28 15 -96 -16 -85 -39 -103 -36
-159 27 -67 76 -99 88 -144 52z"/>
<path d="M887 969 c-93 -22 -195 -99 -233 -177 -14 -28 -19 -59 -19 -127 0
-79 3 -95 27 -135 138 -235 516 -300 701 -122 65 62 82 104 82 202 0 78 -3 90
-34 148 -76 140 -229 223 -405 221 -45 -1 -98 -5 -119 -10z m269 -128 c218
-103 156 -341 -89 -341 -150 0 -276 117 -251 233 26 121 197 176 340 108z"/>
</g>
</svg>
